solid OpenSCAD_Model
  facet normal 0 -1 0
    outer loop
      vertex 0 0 0
      vertex 200 0 0
      vertex 200 0 3
    endloop
  endfacet
  facet normal 0 -1 0
    outer loop
      vertex 0 0 3
      vertex 0 0 0
      vertex 200 0 3
    endloop
  endfacet
  facet normal 0 0 -1
    outer loop
      vertex 15 15 0
      vertex 200 0 0
      vertex 0 0 0
    endloop
  endfacet
  facet normal 0 0 -1
    outer loop
      vertex 0 100 0
      vertex 15 15 0
      vertex 0 0 0
    endloop
  endfacet
  facet normal 0 0 -1
    outer loop
      vertex 135 15 0
      vertex 200 0 0
      vertex 15 15 0
    endloop
  endfacet
  facet normal 0 0 -1
    outer loop
      vertex 0 100 0
      vertex 200 0 0
      vertex 135 15 0
    endloop
  endfacet
  facet normal 0 0 -1
    outer loop
      vertex 0 100 0
      vertex 135 15 0
      vertex 15 75 0
    endloop
  endfacet
  facet normal 0 0 -1
    outer loop
      vertex 0 100 0
      vertex 15 75 0
      vertex 15 15 0
    endloop
  endfacet
  facet normal -1 0 0
    outer loop
      vertex 0 0 3
      vertex 0 100 3
      vertex 0 0 0
    endloop
  endfacet
  facet normal -1 0 0
    outer loop
      vertex 0 0 0
      vertex 0 100 3
      vertex 0 100 0
    endloop
  endfacet
  facet normal 0 0 1
    outer loop
      vertex 15 75 3
      vertex 200 0 3
      vertex 0 100 3
    endloop
  endfacet
  facet normal 0 0 1
    outer loop
      vertex 0 0 3
      vertex 200 0 3
      vertex 15 15 3
    endloop
  endfacet
  facet normal 0 0 1
    outer loop
      vertex 0 0 3
      vertex 15 15 3
      vertex 0 100 3
    endloop
  endfacet
  facet normal 0 0 1
    outer loop
      vertex 15 15 3
      vertex 15 75 3
      vertex 0 100 3
    endloop
  endfacet
  facet normal 0 0 1
    outer loop
      vertex 135 15 3
      vertex 200 0 3
      vertex 15 75 3
    endloop
  endfacet
  facet normal 0 0 1
    outer loop
      vertex 15 15 3
      vertex 200 0 3
      vertex 135 15 3
    endloop
  endfacet
  facet normal 0.447214 0.894427 0
    outer loop
      vertex 0 100 3
      vertex 200 0 3
      vertex 0 100 0
    endloop
  endfacet
  facet normal 0.447214 0.894427 0
    outer loop
      vertex 0 100 0
      vertex 200 0 3
      vertex 200 0 0
    endloop
  endfacet
  facet normal 0 1 0
    outer loop
      vertex 15 15 3
      vertex 135 15 3
      vertex 15 15 0
    endloop
  endfacet
  facet normal 0 1 0
    outer loop
      vertex 15 15 0
      vertex 135 15 3
      vertex 135 15 0
    endloop
  endfacet
  facet normal 1 0 0
    outer loop
      vertex 15 15 0
      vertex 15 75 0
      vertex 15 75 3
    endloop
  endfacet
  facet normal 1 0 0
    outer loop
      vertex 15 15 3
      vertex 15 15 0
      vertex 15 75 3
    endloop
  endfacet
  facet normal -0.447214 -0.894427 0
    outer loop
      vertex 15 75 0
      vertex 135 15 0
      vertex 135 15 3
    endloop
  endfacet
  facet normal -0.447214 -0.894427 0
    outer loop
      vertex 15 75 3
      vertex 15 75 0
      vertex 135 15 3
    endloop
  endfacet
endsolid OpenSCAD_Model
